<svg width="375" height="375" viewBox="0 0 375 375" fill="none" xmlns="http://www.w3.org/2000/svg">
  <g clip-path="url(#clip0_0_1)">
    <g clip-path="url(#clip1_0_1)">
      <rect width="375" height="375" rx="52" fill="#F3F3F3" />
      <rect x="-267" y="156.373" width="565" height="206" rx="52" transform="rotate(-45.4113 -267 156.373)"
        fill="#E3E3E3" />
      <rect x="58" y="435.373" width="565" height="206" rx="52" transform="rotate(-45.4113 58 435.373)"
        fill="#EAEAEA" />
    </g>
    <rect x="4" y="4" width="367" height="367" rx="48" stroke="black" stroke-width="8" />
  </g>
  <path
    d="M90.6881 259.08C90.5281 260.52 90.4481 262 90.4481 263.52C90.4481 266.4 90.2881 269 89.9681 271.32C89.6481 273.64 89.4481 275.24 89.3681 276.12C89.2881 276.92 89.1681 277.72 89.0081 278.52V279.36C89.0081 280.8 88.6881 282.24 88.0481 283.68L87.6881 289.08L87.2081 300.48V306.48C87.2081 309.52 87.0481 311.16 86.7281 311.4L86.8481 314.52V315.84L86.7281 317.28C86.7281 317.6 86.6481 317.76 86.4881 317.76C86.6481 318.72 86.2481 319.76 85.2881 320.88C84.4081 321.92 83.2881 322.6 81.9281 322.92L79.7681 323.28C79.4481 323.28 79.0081 323.32 78.4481 323.4C77.8881 323.4 77.4081 323.32 77.0081 323.16C76.6081 323 76.2081 322.8 75.8081 322.56C75.0081 322.08 74.4481 321.16 74.1281 319.8C73.8881 319.4 73.4081 316.96 72.6881 312.48C72.6881 311.52 72.6081 310.32 72.4481 308.88L72.8081 306V303.72C72.8081 302.28 72.9681 301.28 73.2881 300.72C72.9681 300.24 73.1681 299.2 73.8881 297.6C73.3281 296.88 73.3681 295.28 74.0081 292.8C73.6881 291.76 73.6881 291.08 74.0081 290.76C74.1681 290.28 74.2481 289.16 74.2481 287.4L74.3681 286.2C74.3681 283.88 74.6081 281.76 75.0881 279.84C74.9281 279.6 74.9281 278.96 75.0881 277.92C75.2481 276.88 75.3681 275.64 75.4481 274.2V273.36C75.5281 272.16 75.5681 270.88 75.5681 269.52L75.6881 268.44C75.6881 267.96 75.7681 267 75.9281 265.56C76.1681 264.12 76.3681 262.6 76.5281 261H76.2881C67.8081 263.32 62.6081 264.48 60.6881 264.48L58.6481 264.6C57.4481 264.6 56.2081 264.4 54.9281 264C54.2881 263.68 53.8081 262.84 53.4881 261.48C53.4881 258.84 54.0481 256.92 55.1681 255.72C56.3681 254.52 58.5681 253.4 61.7681 252.36C62.5681 252.28 67.5281 250.6 76.6481 247.32L81.8081 246.12C82.7681 245.8 84.2881 245.64 86.3681 245.64C88.4481 245.64 90.1681 245.4 91.5281 244.92C92.9681 244.36 94.5281 243.96 96.2081 243.72C97.8881 243.4 99.6481 243.08 101.488 242.76C102.368 242.44 103.968 242.52 106.288 243C107.168 243 108.568 243.92 110.488 245.76L111.208 247.44C111.208 247.92 111.328 248.28 111.568 248.52C111.888 250.68 111.408 252.08 110.128 252.72C109.648 252.96 108.808 253.28 107.608 253.68C106.008 253.68 102.008 254.48 95.6081 256.08C95.2881 256.08 93.6881 256.32 90.8081 256.8L90.6881 258.36V259.08ZM127.374 285.6C127.694 284.4 127.654 282.88 127.254 281.04C126.694 280.56 125.934 280.32 124.974 280.32C123.774 280.32 122.694 281.44 121.734 283.68C120.454 285.6 119.494 287.72 118.854 290.04H118.734C117.854 293.4 117.414 295.2 117.414 295.44C118.694 295.76 119.734 295.92 120.534 295.92C121.334 295.84 122.254 295.4 123.294 294.6C125.134 292.84 126.494 289.84 127.374 285.6ZM127.014 302.88L122.574 303.24C120.094 303.24 118.134 303 116.694 302.52L117.054 304.8C117.294 311.44 119.134 315.8 122.574 317.88C123.534 318.28 124.334 318.48 124.974 318.48C125.614 318.48 126.454 318.16 127.494 317.52C127.814 317.2 128.094 316.76 128.334 316.2C128.414 315.48 128.814 315.16 129.534 315.24C132.814 311.08 135.294 309.44 136.974 310.32C138.654 311.44 139.494 312.32 139.494 312.96C139.494 313.28 139.294 313.64 138.894 314.04V314.76C138.894 315.56 138.374 317 137.334 319.08C136.374 321.16 135.334 322.92 134.214 324.36C133.654 325.56 132.934 326.4 132.054 326.88C129.494 328.48 126.774 329.12 123.894 328.8C123.254 328.72 122.814 328.56 122.574 328.32C121.934 328.16 121.454 328.12 121.134 328.2L120.174 328.08C119.454 328.08 118.854 327.92 118.374 327.6C117.574 327.12 117.014 326.88 116.694 326.88C114.614 326.08 113.334 325.48 112.854 325.08C112.454 324.68 112.094 324.4 111.774 324.24C111.454 324.08 110.694 323.24 109.494 321.72C108.454 320.84 107.854 320.28 107.694 320.04C107.214 319.32 106.774 318.8 106.374 318.48C106.054 318.16 105.854 317.44 105.774 316.32C105.454 315.92 105.294 315.4 105.294 314.76L104.814 313.8C104.814 313.24 104.574 312.8 104.094 312.48C103.614 312 103.374 311.4 103.374 310.68V309.72C103.054 309.56 102.974 309.08 103.134 308.28V305.16L103.014 304.08V303.24C102.934 302.92 103.014 302.24 103.254 301.2L103.134 300.12C103.214 300.04 103.334 299.4 103.494 298.2C103.814 296.52 104.174 295.48 104.574 295.08V294C104.654 293.76 104.694 293.44 104.694 293.04C104.694 292.64 104.774 292.2 104.934 291.72C105.174 291.24 105.814 289.44 106.854 286.32L108.774 282.12C109.334 280.92 110.214 279.6 111.414 278.16C111.494 277.76 111.814 277.04 112.374 276L113.934 274.56C114.414 273.84 115.134 273.32 116.094 273C117.214 272.44 118.054 272.16 118.614 272.16L121.974 271.68C122.374 271.76 122.654 271.8 122.814 271.8H124.374C126.134 271.96 127.574 272.32 128.694 272.88C131.094 273.6 132.854 274.52 133.974 275.64C136.454 278.44 137.694 281.12 137.694 283.68C137.694 286.24 137.294 288.44 136.494 290.28C134.494 294.84 133.054 297.72 132.174 298.92C130.734 301.56 129.014 302.88 127.014 302.88ZM162.64 300.6L162.88 305.28L163.72 307.56L164.92 309.96C165.16 311.64 165.96 312.64 167.32 312.96C168.28 313.12 169.2 312.6 170.08 311.4C170.56 311 170.92 310.72 171.16 310.56C171.64 310.16 171.88 309.28 171.88 307.92C171.88 306.48 172 305.32 172.24 304.44C172.16 304.04 172.2 302.64 172.36 300.24C172.6 297.76 172.8 295.88 172.96 294.6C173.2 293.24 173.28 292.32 173.2 291.84C172.64 291.12 172.12 289.64 171.64 287.4C170.04 285.8 168.96 284.92 168.4 284.76C166.64 284.12 165.56 284.04 165.16 284.52C164.6 285.08 164 287.72 163.36 292.44C162.88 293.24 162.64 294.28 162.64 295.56C162.72 296.76 162.72 297.68 162.64 298.32V300.6ZM184.96 297.36C185.28 301.36 185.44 304.48 185.44 306.72L185.56 308.28L185.32 315.6C185.32 316.72 185.28 317.76 185.2 318.72V320.64L184.72 323.76V324.96C184.72 327.92 183.36 332.12 180.64 337.56C179.68 339.56 178.2 341.6 176.2 343.68C172.84 347.28 168.72 349.16 163.84 349.32C159.76 349.32 156.76 348.48 154.84 346.8L153.64 346.2C152.68 345.72 151.6 344.2 150.4 341.64C150.4 341.4 150.2 340.88 149.8 340.08C149.8 338.96 150.04 338.08 150.52 337.44C150.84 336.8 151.92 336.24 153.76 335.76C154.56 335.6 156.04 336.4 158.2 338.16C159.8 339.92 161.68 340.84 163.84 340.92C166.08 341.24 167.8 340.2 169 337.8C170.2 335.4 171.12 332.2 171.76 328.2C172.08 326.68 172.24 324.96 172.24 323.04C172.24 321.12 172.16 319.84 172 319.2C169.84 320.32 167.92 320.8 166.24 320.64H165.16C164.52 320.8 163.56 320.8 162.28 320.64C161 320.4 159.8 319.88 158.68 319.08L156.4 317.52C156.48 317.6 156.44 317.64 156.28 317.64L155.68 317.28L154 315.96C153.28 315.56 152.92 314.8 152.92 313.68C152.36 313.36 151.96 312.96 151.72 312.48C151.08 312.24 150.76 311.68 150.76 310.8L150.16 308.4C150.16 308 149.96 307 149.56 305.4C149.16 304.76 149.04 304.12 149.2 303.48C149.44 302.84 149.56 302.32 149.56 301.92L149.92 297.84V297C149.68 296.76 149.68 296 149.92 294.72C150.16 294.24 150.28 293.88 150.28 293.64C150.76 291.08 151.12 289.48 151.36 288.84C151.6 288.12 151.76 287.32 151.84 286.44C152 285.56 152.32 284.76 152.8 284.04L154 281.28C154.48 280.4 155.76 279.16 157.84 277.56C158.64 276.76 159.64 276.24 160.84 276L164.2 276.24L167.68 277.08C167.76 277.08 169.24 277.68 172.12 278.88C172.12 277.36 172.88 276.08 174.4 275.04C175.04 274.4 176.44 274.36 178.6 274.92H179.68C180.56 274.84 181.52 275.2 182.56 276C183.04 276.56 183.56 277.84 184.12 279.84C184.68 287.28 184.96 293.12 184.96 297.36ZM221.964 292.68C222.044 292.44 222.204 291.04 222.444 288.48C222.284 288.24 222.084 287.36 221.844 285.84C221.204 284.56 220.364 283.6 219.324 282.96C218.044 282.4 217.284 282.12 217.044 282.12C216.324 282.36 215.804 282.64 215.484 282.96C215.244 283.2 214.564 284.32 213.444 286.32C212.404 288.32 211.524 291.64 210.804 296.28C210.164 300.92 209.844 304.28 209.844 306.36C209.844 308.44 209.924 311 210.084 314.04C210.244 317 210.884 318.4 212.004 318.24C213.044 318.08 214.484 315.2 216.324 309.6C216.404 309.2 216.684 308.48 217.164 307.44L221.964 292.68ZM236.004 287.76C236.004 292 236.444 295.88 237.324 299.4C237.724 302.92 238.444 306.68 239.484 310.68C239.724 312.28 239.804 313.08 239.724 313.08C241.724 317.48 242.844 320.12 243.084 321C243.324 321.8 243.284 322.48 242.964 323.04V322.92C242.724 323.64 241.964 324.28 240.684 324.84C239.484 325.48 238.404 325.88 237.444 326.04C234.404 327 232.604 325.84 232.044 322.56C231.724 322.32 231.244 321.84 230.604 321.12C230.044 320.32 229.724 319.68 229.644 319.2C229.564 318.64 229.284 318.12 228.804 317.64C228.644 317.24 228.284 316.72 227.724 316.08C227.164 315.44 226.844 314.8 226.764 314.16L226.404 310.92L226.164 310.8C224.884 313.44 224.044 315.28 223.644 316.32C222.684 319.04 221.004 322.16 218.604 325.68C215.884 328.72 212.564 329.6 208.644 328.32C207.204 328.24 206.044 327.8 205.164 327C204.364 326.2 203.804 325.76 203.484 325.68C203.004 325.52 202.324 324.92 201.444 323.88C200.004 321.96 199.124 319.12 198.804 315.36V312.24C199.044 311.84 199.044 309.92 198.804 306.48V305.76C198.324 303.36 198.084 301.92 198.084 301.44C198.084 300.96 198.164 300.32 198.324 299.52C198.484 298.72 198.524 298.24 198.444 298.08C198.364 297.84 198.324 297.48 198.324 297V295.2L198.924 288.72C199.804 285.92 200.764 283.4 201.804 281.16C202.124 279.8 202.724 278.72 203.604 277.92C205.604 275.76 206.684 274.52 206.844 274.2C207.404 273 209.484 272.04 213.084 271.32L215.124 271.44C215.924 271.44 216.644 271.56 217.284 271.8C217.924 271.96 218.364 272.04 218.604 272.04C219.724 272.6 220.644 272.88 221.364 272.88C222.084 272.88 223.284 273.44 224.964 274.56C225.444 274.64 226.644 275.32 228.564 276.6C230.644 277.96 231.844 278.72 232.164 278.88L235.284 279.96C236.164 280.68 236.604 281.08 236.604 281.16C236.604 281.24 236.404 283.44 236.004 287.76ZM254.031 250.92C254.031 250.68 254.071 250.4 254.151 250.08V246.24C254.231 246 254.271 245.68 254.271 245.28C254.271 244.8 254.351 244.4 254.511 244.08C254.511 243.04 254.951 242.08 255.831 241.2C256.151 240.56 256.591 240.16 257.151 240C258.191 239.6 260.191 239.92 263.151 240.96C263.071 240.88 263.151 240.92 263.391 241.08C263.711 241.16 263.911 241.2 263.991 241.2C264.791 241.28 265.471 242 266.031 243.36C266.031 244.24 266.191 247.12 266.511 252C266.831 256.88 266.871 260.88 266.631 264V265.2C266.391 271.28 266.271 276.4 266.271 280.56C266.111 281.04 266.111 281.56 266.271 282.12C266.111 283.08 266.031 285.4 266.031 289.08L266.991 287.76L267.591 286.56C267.591 286.32 267.751 286.04 268.071 285.72C268.391 285.32 268.591 285.04 268.671 284.88C268.751 284.64 268.871 284.44 269.031 284.28C269.191 284.04 269.311 283.84 269.391 283.68C269.551 283.44 269.991 283.08 270.711 282.6C270.711 282.36 271.151 281.84 272.031 281.04L277.551 274.08L280.671 271.92C280.991 271.44 281.791 271.04 283.071 270.72C284.431 270.32 285.671 270.16 286.791 270.24C287.991 269.52 289.751 269.92 292.071 271.44C293.271 272.56 293.311 273.96 292.191 275.64C290.191 278.6 288.991 280.32 288.591 280.8L283.431 288L281.991 290.28C279.191 293.88 277.431 296.04 276.711 296.76C276.071 297.4 275.791 297.96 275.871 298.44C276.911 299.48 277.791 300.16 278.511 300.48C278.831 300.88 279.111 301.24 279.351 301.56C279.671 301.8 279.831 301.96 279.831 302.04L285.591 307.8C288.551 311 290.751 313.64 292.191 315.72L297.711 321.84C299.071 322.64 299.751 323.48 299.751 324.36C299.751 325.24 298.991 326 297.471 326.64C296.991 327.12 295.511 327.24 293.031 327C291.351 327.32 290.111 327.28 289.311 326.88C287.071 326.8 284.911 326.04 282.831 324.6C281.471 323.56 280.791 322.8 280.791 322.32C280.391 321.76 279.991 321.28 279.591 320.88C279.111 320.24 278.711 319.64 278.391 319.08C277.751 318.76 276.951 317.72 275.991 315.96C275.271 315.48 274.911 315.2 274.911 315.12C274.911 314.96 274.671 314.68 274.191 314.28C273.711 313.88 273.391 313.64 273.231 313.56C273.231 313.24 272.551 312.24 271.191 310.56C270.711 310.32 270.311 310 269.991 309.6C269.751 309.12 269.671 308.88 269.751 308.88L267.471 306L266.511 304.56C266.511 310.64 267.111 316.76 268.311 322.92C268.471 324.2 268.551 324.96 268.551 325.2C268.631 325.44 268.671 325.64 268.671 325.8C268.751 326.04 268.791 326.2 268.791 326.28L267.951 325.92C268.191 326.08 268.431 326.52 268.671 327.24C268.911 327.96 268.991 328.44 268.911 328.68C268.191 329.48 267.711 330 267.471 330.24C267.311 330.48 266.791 330.64 265.911 330.72C265.111 330.8 264.671 330.68 264.591 330.36C263.151 329.64 262.311 329.16 262.071 328.92C261.591 328.84 260.631 328.44 259.191 327.72C259.111 327.4 258.991 327.16 258.831 327C258.111 326.52 257.551 325.92 257.151 325.2C256.831 325.04 256.471 324.48 256.071 323.52C255.351 322.16 254.991 320.68 254.991 319.08C254.831 318.44 254.711 318.08 254.631 318C254.551 317.92 254.511 317.6 254.511 317.04L254.151 313.92C253.911 313.04 253.871 312.28 254.031 311.64L253.431 309.72L253.191 305.52L253.431 303.84C252.951 303.12 252.911 302.08 253.311 300.72V300C253.231 299.84 253.151 299.12 253.071 297.84C252.991 296.56 252.991 295.8 253.071 295.56C253.151 295.32 253.191 295.04 253.191 294.72C253.031 293.6 252.951 292.6 252.951 291.72V290.4C252.551 282.4 252.351 278.32 252.351 278.16V274.8C252.271 274.24 252.311 272.92 252.471 270.84C252.711 268.76 252.791 267.08 252.711 265.8C252.711 264.52 252.791 263.72 252.951 263.4C252.951 262.68 253.031 261.96 253.191 261.24V259.92C253.271 259.68 253.351 258.92 253.431 257.64L254.031 250.92ZM317.021 256.08H317.381C320.181 256.24 321.981 257.08 322.781 258.6C323.661 260.04 323.981 261.44 323.741 262.8C323.581 264.16 322.501 265.84 320.501 267.84C318.581 269.84 316.821 270.8 315.221 270.72C314.741 270.72 313.781 270.48 312.341 270C310.981 269.52 310.261 269.24 310.181 269.16C310.101 268.84 309.861 268.6 309.461 268.44C307.381 267.64 306.221 265.6 305.981 262.32C305.981 262 306.221 261.76 306.701 261.6C306.381 261.6 306.341 261.12 306.581 260.16C307.141 258.4 308.381 257.24 310.301 256.68C312.781 256.2 315.021 256 317.021 256.08ZM316.781 286.44L314.741 306.48C314.741 306.96 314.741 307.44 314.741 307.92C314.741 308.32 314.781 308.68 314.861 309C314.781 309.32 314.741 309.72 314.741 310.2V318.84C315.061 321.56 315.061 323.16 314.741 323.64C314.261 323.8 313.701 324.04 313.061 324.36C312.421 324.76 311.181 324.84 309.341 324.6C307.581 324.44 306.301 324.16 305.501 323.76L304.061 323.4C303.261 323.4 302.741 323.04 302.501 322.32C301.461 321.68 300.901 320.84 300.821 319.8C300.581 319.4 300.861 318.84 301.661 318.12C301.581 317.72 301.421 317.16 301.181 316.44C300.941 315.64 300.861 314.92 300.941 314.28C301.181 313.88 301.061 313.28 300.581 312.48C300.581 311.6 300.701 310.6 300.941 309.48C301.261 309.16 301.341 308 301.181 306C301.741 305.2 302.021 304.08 302.021 302.64C301.701 301.36 301.821 300.08 302.381 298.8C302.941 297.52 303.261 296.24 303.341 294.96C303.501 292.96 303.861 291 304.421 289.08C304.421 288.28 304.781 287 305.501 285.24C306.301 283.48 306.821 282.44 307.061 282.12L308.981 280.2L311.141 279.36H311.261C312.221 279.04 313.181 279.08 314.141 279.48C316.461 280.36 317.861 281.04 318.341 281.52C318.021 281.84 317.821 282.32 317.741 282.96C317.661 283.6 317.581 284.16 317.501 284.64C317.181 285.04 316.941 285.64 316.781 286.44Z"
    fill="black" />
  <path
    d="M138.14 233.76C138.02 233.76 137.9 233.76 137.78 233.76C137.78 233.88 137.72 233.94 137.6 233.94C136.88 233.94 136.28 233.52 135.8 232.68C135.68 232.56 135.62 232.32 135.62 231.96C135.62 231 135.98 230.46 136.7 230.34C149.66 224.1 159.56 215.16 166.4 203.52C173.36 191.76 177.98 178.08 180.26 162.48C180.62 160.32 180.8 158.34 180.8 156.54C180.8 155.94 180.74 155.34 180.62 154.74C180.62 154.02 180.56 153.42 180.44 152.94C180.32 151.98 179.84 151.2 179 150.6C178.28 150 177.44 149.76 176.48 149.88C168.92 150.6 162.62 151.5 157.58 152.58C152.66 153.54 148.76 154.38 145.88 155.1C143 155.82 140.72 156.18 139.04 156.18C134.24 156.18 129.68 153.72 125.36 148.8C123.2 146.28 121.7 143.88 120.86 141.6C120.14 139.2 119.9 137.16 120.14 135.48C120.38 133.8 121.28 132.96 122.84 132.96C123.44 132.96 123.98 133.2 124.46 133.68C125.9 134.76 127.88 135.54 130.4 136.02C133.04 136.38 135.86 136.56 138.86 136.56C140.18 136.56 141.44 136.56 142.64 136.56C143.96 136.44 145.28 136.32 146.6 136.2C149.72 135.96 153.86 135.72 159.02 135.48C164.18 135.12 169.7 134.76 175.58 134.4C181.58 133.92 187.4 133.5 193.04 133.14C198.68 132.66 203.54 132.24 207.62 131.88C212.3 131.52 216.32 131.1 219.68 130.62C223.04 130.14 225.86 129.36 228.14 128.28C228.86 127.92 229.7 127.62 230.66 127.38C231.62 127.02 232.64 126.84 233.72 126.84C235.16 126.84 236.54 127.08 237.86 127.56C240.38 128.4 243.44 129.66 247.04 131.34C250.64 133.02 253.4 134.76 255.32 136.56C257.36 138.36 258.38 140.34 258.38 142.5C258.38 144.18 257.72 145.62 256.4 146.82C255.2 147.9 253.46 148.26 251.18 147.9C249.14 147.54 246.74 147.3 243.98 147.18C241.22 147.06 238.1 147 234.62 147C226.34 147 215.36 147.36 201.68 148.08C201.08 148.2 200.72 148.56 200.6 149.16C200.48 149.76 200.66 150.24 201.14 150.6C201.98 151.08 202.76 151.62 203.48 152.22C204.32 152.82 204.98 153.42 205.46 154.02C206.42 154.98 206.9 156.24 206.9 157.8C206.9 159.48 206.42 161.04 205.46 162.48C204.62 164.04 203.78 165.72 202.94 167.52C202.22 169.32 201.56 171.18 200.96 173.1C197.24 185.34 192.2 195.42 185.84 203.34C179.6 211.26 172.4 217.62 164.24 222.42C156.2 227.1 147.5 230.88 138.14 233.76ZM164.78 115.68C161.9 115.68 159.2 114.72 156.68 112.8C154.28 110.88 152.24 108.72 150.56 106.32C148.88 103.8 147.74 101.7 147.14 100.02C147.02 99.78 146.96 99.48 146.96 99.12C146.96 98.52 147.2 98.04 147.68 97.68C148.52 96.84 149.3 96.72 150.02 97.32C151.34 97.92 152.96 98.34 154.88 98.58C156.92 98.82 159.08 98.94 161.36 98.94C162.2 98.94 163.04 98.94 163.88 98.94C164.84 98.94 165.8 98.88 166.76 98.76C169.16 98.76 172.1 98.64 175.58 98.4C179.18 98.04 182.96 97.62 186.92 97.14C191 96.54 194.84 95.88 198.44 95.16C202.16 94.44 205.28 93.66 207.8 92.82C208.52 92.58 209.24 92.4 209.96 92.28C210.68 92.16 211.4 92.1 212.12 92.1C213.2 92.1 214.28 92.28 215.36 92.64C217.76 93.36 220.28 94.74 222.92 96.78C225.56 98.7 227.42 100.68 228.5 102.72C229.1 103.92 229.4 104.94 229.4 105.78C229.4 107.1 228.92 108.3 227.96 109.38C227.12 110.34 225.86 110.76 224.18 110.64C219.02 110.4 212.66 110.64 205.1 111.36C197.66 111.96 190.52 112.74 183.68 113.7C180.32 114.06 176.96 114.48 173.6 114.96C170.24 115.44 167.3 115.68 164.78 115.68Z"
    fill="black" />
  <defs>
    <clipPath id="clip0_0_1">
      <rect width="375" height="375" rx="52" fill="white" />
    </clipPath>
    <clipPath id="clip1_0_1">
      <rect width="375" height="375" rx="52" fill="white" />
    </clipPath>
  </defs>
</svg>